<svg width="300" height="300" fill="none" xmlns="http://www.w3.org/2000/svg">
  <path fill-rule="evenodd" clip-rule="evenodd" d="M290 150c0 77.32-62.68 140-140 140-77.3199 0-140-62.68-140-140C10 72.6801 72.6801 10 150 10c77.32 0 140 62.6801 140 140Zm-275.8286 0c0 75.016 60.8125 135.829 135.8286 135.829 75.016 0 135.829-60.813 135.829-135.829 0-75.0161-60.813-135.8286-135.829-135.8286C74.9839 14.1714 14.1714 74.9839 14.1714 150ZM280 150c0 71.797-58.203 130-130 130S20 221.797 20 150 78.203 20 150 20s130 58.203 130 130ZM32.582 196.146C51.0017 242.978 96.6297 276.127 150 276.127c45.462 0 85.306-24.053 107.501-60.127h-10.914v-49.922c0-4.922-.791-9.404-2.373-13.447-1.582-4.102-3.897-7.617-6.944-10.547-3.047-2.93-6.767-5.186-11.162-6.768-4.336-1.64-9.258-2.461-14.765-2.461-6.622 0-12.774 1.055-18.457 3.165-5.684 2.109-10.665 4.775-14.942 7.998V216h-26.015V70.2773h26.015v49.9217c5.449-2.988 11.514-5.361 18.193-7.119 6.739-1.758 13.799-2.637 21.182-2.637 8.555 0 16.231 1.26 23.027 3.78 6.856 2.519 12.657 6.152 17.403 10.898 4.746 4.688 8.379 10.4 10.898 17.139 2.578 6.738 3.867 14.326 3.867 22.763v15.069c2.361-9.643 3.613-19.721 3.613-30.092 0-69.6578-56.469-126.1266-126.127-126.1266C80.3422 23.8734 23.8734 80.3422 23.8734 150c0 .282.001.564.0028.845.7519-3 1.7665-5.862 3.0437-8.585 3.1055-6.68 7.3828-12.364 12.8321-17.051 5.5078-4.746 12.0117-8.379 19.5117-10.898 7.5586-2.579 15.7324-3.868 24.5215-3.868 3.75 0 7.4414.235 11.0742.703 3.6914.469 7.2066 1.114 10.5466 1.934 3.399.82 6.563 1.816 9.492 2.988 2.989 1.114 5.625 2.344 7.911 3.692V70.1895h26.015V216h-26.015v-9.756c-2.286 1.582-4.981 3.076-8.086 4.483-3.106 1.406-6.446 2.636-10.02 3.691-3.574 1.055-7.2948 1.875-11.162 2.461-3.8086.644-7.5879.967-11.3379.967-8.789 0-16.875-1.289-24.2578-3.867-7.3242-2.579-13.623-6.211-18.8965-10.899-2.3903-2.125-4.5459-4.436-6.4668-6.934Zm19.4746-19.785c-1.6406-3.691-2.4609-7.617-2.4609-11.777 0-4.453.8496-8.584 2.5488-12.393 1.6993-3.808 4.1309-7.119 7.295-9.931 3.2226-2.813 7.1484-5.01 11.7773-6.592 4.6875-1.641 10.0195-2.461 15.9961-2.461 2.9297 0 5.9473.234 9.0527.703 3.1055.41 6.1814 1.084 9.2284 2.022 3.047.937 6.035 2.138 8.965 3.603 2.93 1.465 5.713 3.252 8.35 5.361v35.948c-2.11 2.168-4.6 4.131-7.471 5.888-2.813 1.758-5.859 3.252-9.141 4.483-3.222 1.23-6.5915 2.197-10.1072 2.9-3.5156.645-7.0312.967-10.5468.967-5.5078 0-10.4883-.791-14.9414-2.373-4.3946-1.641-8.1739-3.838-11.3379-6.592-3.1055-2.812-5.5078-6.064-7.2071-9.756Z" fill="#000"/>
  <path d="M283.5 149.5c0 17.466-3.44 34.761-10.124 50.897-6.684 16.136-16.481 30.798-28.831 43.148-12.35 12.35-27.012 22.147-43.148 28.831-16.136 6.684-33.431 10.124-50.897 10.124s-34.761-3.44-50.8969-10.124c-16.1363-6.684-30.7981-16.481-43.1483-28.831-12.3502-12.35-22.1469-27.012-28.8308-43.148C20.9401 184.261 17.5 166.966 17.5 149.5s3.4401-34.761 10.124-50.8969c6.6839-16.1363 16.4806-30.7981 28.8308-43.1483C68.805 43.1046 83.4668 33.3079 99.6031 26.624 115.739 19.9401 133.034 16.5 150.5 16.5s34.761 3.4402 50.897 10.124c16.136 6.6839 30.798 16.4806 43.148 28.8308 12.35 12.3502 22.147 27.012 28.831 43.1483C280.06 114.739 283.5 132.034 283.5 149.5Z" stroke="#000" stroke-dasharray="10 10"/>
  <path fill-rule="evenodd" clip-rule="evenodd" d="m148.413 31 2.694 8.2918h8.718l-7.053 5.1246 2.694 8.2918-7.053-5.1246-7.054 5.1246 2.694-8.2918L137 39.2918h8.719L148.413 31Zm-27 3 2.694 8.2918h8.718l-7.053 5.1246 2.694 8.2918-7.053-5.1246-7.054 5.1246 2.694-8.2918L110 42.2918h8.719L121.413 34Zm-21.306 17.2918L97.4127 43l-2.6942 8.2918H86l7.0534 5.1246-2.6941 8.2918 7.0534-5.1246 7.0533 5.1246-2.694-8.2918 7.053-5.1246h-8.718ZM175.413 34l2.694 8.2918h8.718l-7.053 5.1246 2.694 8.2918-7.053-5.1246-7.054 5.1246 2.694-8.2918L164 42.2918h8.718L175.413 34Zm29.694 17.2918L202.413 43l-2.695 8.2918H191l7.053 5.1246-2.694 8.2918 7.054-5.1246 7.053 5.1246-2.694-8.2918 7.053-5.1246h-8.718ZM219 229.601c-53.199-7.408-84.764-7.528-137 0l10 11-10 13c53.21-9.241 82.755-8.988 135 0l-11-13 13-11Zm-62.946 7.246-4.428 2.889-.089 2.124 10.499.148.091-2.17-6.687-.095 1.83-1.145c.899-.565 1.645-1.07 2.237-1.515.597-.45 1.073-.87 1.428-1.261.355-.39.608-.77.759-1.137.151-.368.235-.754.252-1.16.022-.526-.059-1.024-.242-1.495-.184-.472-.477-.887-.878-1.247-.397-.36-.909-.645-1.536-.857-.621-.217-1.361-.332-2.221-.344-.984-.014-1.929.105-2.836.358-.902.253-1.745.611-2.531 1.073l1.062 1.89c.705-.402 1.392-.691 2.061-.869.669-.178 1.337-.262 2.004-.253.458.006.849.056 1.174.149.329.094.595.22.797.379.207.159.355.343.446.553.09.209.13.434.12.673-.009.208-.062.416-.159.623-.097.207-.268.438-.514.695-.245.252-.58.539-1.005.861-.425.322-.97.7-1.634 1.133Zm-33.368-4.281 4.501-.234 1.527 9.923 2.474-.129-1.527-9.922 4.501-.234-.33-2.147-11.477.597.331 2.146Zm-11.208 7.123c.501.206 1.002.388 1.503.547.504.154 1.017.279 1.539.375.52.09 1.057.148 1.609.174.557.026 1.14.013 1.747-.038.732-.061 1.343-.159 1.834-.293.49-.139.876-.303 1.158-.492.285-.194.473-.411.561-.65.095-.24.108-.494.042-.762-.107-.43-.375-.753-.805-.97-.431-.222-1.031-.301-1.799-.236-.338.028-.687.08-1.05.157-.363.072-.731.149-1.103.232-.366.082-.73.162-1.093.239-.358.071-.701.12-1.028.148-.545.045-1.086.021-1.623-.073-.532-.095-1.027-.262-1.484-.503-.452-.241-.843-.556-1.173-.946-.33-.391-.562-.859-.698-1.405-.08-.323-.116-.648-.107-.974.015-.326.085-.642.211-.946.129-.31.322-.603.577-.877.254-.279.581-.528.982-.748.407-.22.89-.405 1.452-.555.565-.156 1.224-.265 1.977-.328.545-.046 1.1-.061 1.665-.047.564.01 1.119.046 1.664.108.551.063 1.086.149 1.606.261.519.106 1.009.232 1.469.38l-.6 2.031c-.379-.118-.781-.221-1.205-.309-.426-.093-.866-.167-1.319-.222-.453-.055-.917-.088-1.392-.1-.47-.018-.944-.006-1.422.034-.68.057-1.228.152-1.646.285-.412.132-.729.285-.951.459-.223.168-.363.35-.42.546-.054.19-.058.376-.013.558.088.354.324.631.707.831.382.195.908.265 1.578.208.27-.022.574-.066.913-.13.343-.07.701-.144 1.074-.222.377-.078.762-.152 1.153-.22.395-.075.781-.128 1.16-.16.716-.06 1.369-.034 1.958.076.594.11 1.115.296 1.561.558.445.257.816.585 1.11.983.294.394.504.845.631 1.356.169.682.157 1.305-.037 1.868-.19.558-.54 1.047-1.051 1.466-.506.414-1.159.753-1.957 1.016-.8.258-1.718.43-2.756.517-.685.058-1.366.071-2.041.04-.674-.026-1.331-.09-1.971-.191-.635-.107-1.252-.244-1.85-.41-.593-.172-1.153-.368-1.679-.587l.832-2.059Zm-15.5226-6.946 10.3286-1.2.707 2.054-7.8691.914.7929 2.305 6.9692-.81.663 1.929-6.969.809 1.106 3.214 8.031-.933.704 2.046-10.4915 1.219-3.9721-11.547Zm40.8856 7.923c-.017-.208.009-.403.078-.587.073-.19.185-.354.335-.494.15-.144.336-.259.559-.343.223-.084.477-.13.764-.138.286-.008.547.024.782.096.236.071.437.175.605.311.172.13.308.288.406.473.104.179.164.372.181.58.017.208-.012.406-.085.595-.068.184-.178.346-.328.485-.145.14-.329.251-.552.336-.222.089-.477.138-.763.145-.286.008-.548-.026-.783-.103-.236-.071-.44-.172-.612-.303-.173-.131-.31-.285-.414-.465-.098-.184-.156-.38-.173-.588Zm26.781-4.746c.13-.976.394-1.844.793-2.605.4-.761.908-1.398 1.526-1.911.618-.517 1.337-.901 2.155-1.15.818-.249 1.711-.351 2.679-.308.968.043 1.823.225 2.566.544.742.319 1.351.761 1.825 1.328.475.561.81 1.236 1.003 2.024.194.788.226 1.669.096 2.645-.129.976-.394 1.844-.793 2.606-.4.761-.908 1.398-1.526 1.91-.617.512-1.335.893-2.153 1.142-.819.249-1.712.352-2.679.308-.968-.043-1.823-.224-2.566-.543-.743-.319-1.352-.759-1.827-1.321-.475-.561-.809-1.236-1.003-2.024-.194-.787-.226-1.669-.096-2.645Zm2.475.103c-.088.661-.077 1.249.033 1.762.115.515.316.952.603 1.313.288.356.656.634 1.106.836.45.197.972.309 1.565.335.593.027 1.138-.037 1.635-.191.497-.16.935-.402 1.313-.728.379-.331.691-.745.935-1.244.249-.497.418-1.077.505-1.738.088-.655.073-1.238-.042-1.747-.11-.513-.308-.951-.595-1.312-.288-.361-.656-.639-1.106-.836-.45-.202-.971-.316-1.564-.343-.593-.027-1.139.04-1.636.199-.497.155-.935.397-1.314.728-.379.331-.693.746-.942 1.243-.244.493-.409 1.068-.496 1.723Zm15.493 1.879-4.939 2.556-.466 2.073 10.47.794.476-2.119-6.668-.506 2.033-1.009c.999-.498 1.833-.946 2.504-1.345.677-.403 1.227-.785 1.652-1.146.424-.361.744-.716.96-1.067.216-.35.369-.724.458-1.12.115-.514.123-1.007.023-1.479-.1-.473-.319-.898-.657-1.275-.332-.377-.793-.688-1.382-.934-.583-.251-1.303-.409-2.16-.474-.982-.075-1.948-.016-2.9.175-.946.192-1.853.49-2.72.895l.727 1.916c.775-.35 1.514-.591 2.214-.724.701-.133 1.384-.174 2.048-.124.457.035.84.108 1.148.219.313.112.556.252.729.42.179.168.295.358.348.569.053.21.053.433.001.667-.046.203-.136.403-.27.599-.134.197-.346.413-.637.65-.289.231-.675.491-1.157.78-.482.289-1.094.625-1.835 1.009Zm7.783.803 9.348-6.32 2.462.264-2.248 7.081 2.618.281-.657 2.07-2.618-.28-.789 2.487-2.463-.264.79-2.487-7.116-.763.673-2.069Zm7.1.762 1.3-4.096-5.448 3.651 4.148.445Z" fill="#000"/>
</svg>
