<svg width="300" height="300" fill="none" xmlns="http://www.w3.org/2000/svg">
  <path fill-rule="evenodd" clip-rule="evenodd" d="M150 290c77.32 0 140-62.68 140-140 0-77.3199-62.68-140-140-140C72.6801 10 10 72.6801 10 150c0 77.32 62.6801 140 140 140Zm0-4.171c-75.0161 0-135.8286-60.813-135.8286-135.829C14.1714 74.9839 74.9839 14.1714 150 14.1714c75.016 0 135.829 60.8125 135.829 135.8286 0 75.016-60.813 135.829-135.829 135.829Zm0-5.829c71.797 0 130-58.203 130-130S221.797 20 150 20 20 78.203 20 150s58.203 130 130 130ZM25.0628 167.393c-.7841-5.686-1.1894-11.492-1.1894-17.393C23.8734 80.3422 80.3422 23.8734 150 23.8734c69.658 0 126.127 56.4688 126.127 126.1266 0 5.05-.297 10.031-.874 14.926-.01-8.399-1.299-15.954-3.867-22.666-2.52-6.739-6.153-12.451-10.899-17.139-4.746-4.746-10.547-8.379-17.402-10.898-6.797-2.52-14.473-3.78-23.028-3.78-7.382 0-14.443.879-21.181 2.637-6.68 1.758-12.744 4.131-18.194 7.119V70.2773h-26.015V216h26.015v-71.982c4.278-3.223 9.258-5.889 14.942-7.998 5.683-2.11 11.836-3.165 18.457-3.165 5.508 0 10.43.821 14.765 2.461 4.395 1.582 8.116 3.838 11.163 6.768 3.046 2.93 5.361 6.445 6.943 10.547 1.582 4.043 2.373 8.525 2.373 13.447V216h8.176c-22.195 36.074-62.039 60.127-107.501 60.127-57.6558 0-106.276-38.687-121.3188-91.517.2273.566.465 1.127.7133 1.683 2.9883 6.504 7.1192 12.1 12.3926 16.787 5.2734 4.688 11.5723 8.32 18.8965 10.899 7.3828 2.578 15.4687 3.867 24.2578 3.867 3.75 0 7.5293-.323 11.3379-.967 3.8667-.586 7.5877-1.406 11.1617-2.461 3.575-1.055 6.914-2.285 10.02-3.691 3.105-1.407 5.801-2.901 8.086-4.483V216h26.015V70.1895h-26.015V119.76c-2.285-1.348-4.922-2.578-7.91-3.692-2.93-1.172-6.094-2.168-9.492-2.988-3.34-.82-6.856-1.465-10.5473-1.934-3.6329-.468-7.3243-.703-11.0743-.703-8.789 0-16.9629 1.289-24.5214 3.868-7.5 2.519-14.004 6.152-19.5118 10.898-5.4492 4.687-9.7265 10.371-12.832 17.051C26.5527 148.881 25 156.322 25 164.584c0 .946.0209 1.882.0628 2.809ZM150.5 17c-1.446 0-2.892.0237-4.335.0709l-.066-1.9989c1.466-.048 2.933-.072 4.401-.072s2.935.024 4.401.072l-.066 1.9989C153.392 17.0237 151.947 17 150.5 17Zm-12.987.638c-2.879.2835-5.746.6611-8.597 1.1318l-.325-1.9733c2.893-.4778 5.804-.8611 8.726-1.1489l.196 1.9904Zm34.571 1.1318c-2.851-.4707-5.718-.8483-8.597-1.1318l.196-1.9904c2.922.2878 5.833.6711 8.726 1.1489l-.325 1.9733Zm-51.672 1.6915c-2.814.6561-5.607 1.4044-8.375 2.2441l-.58-1.9139c2.809-.8523 5.645-1.6119 8.501-2.278l.454 1.9478Zm68.551 2.2441c-2.768-.8396-5.561-1.588-8.375-2.2441l.454-1.9478c2.856.6661 5.692 1.4257 8.501 2.278l-.58 1.9139Zm-85.136 2.787c-1.352.5088-2.696 1.04-4.0325 1.5936-1.3364.5535-2.6627 1.1285-3.9783 1.7246l-.8254-1.8218c1.3355-.605 2.6817-1.1887 4.0383-1.7506 1.3569-.5619 2.7209-1.1011 4.0929-1.6176l.705 1.8718Zm97.379 1.5936c-1.337-.5536-2.681-1.0848-4.033-1.5936l.705-1.8718c1.372.5165 2.736 1.0557 4.093 1.6176 1.356.5619 2.703 1.1456 4.038 1.7507l-.825 1.8217c-1.316-.5961-2.642-1.1711-3.978-1.7246ZM88.0399 32.6454c-2.5509 1.3635-5.0552 2.8095-7.5089 4.3353l-1.0561-1.6984c2.4907-1.5488 5.0328-3.0166 7.6222-4.4007l.9428 1.7638Zm132.4291 4.3353c-2.454-1.5258-4.958-2.9718-7.509-4.3353l.943-1.7638c2.589 1.3841 5.131 2.8519 7.622 4.4007l-1.056 1.6984ZM73.3217 41.7978c-2.3486 1.683-4.6429 3.4433-6.8788 5.2783l-1.2688-1.546c2.2697-1.8627 4.5986-3.6496 6.9827-5.358l1.1649 1.6257Zm161.2353 5.2783c-2.236-1.835-4.53-3.5953-6.879-5.2783l1.165-1.6257c2.384 1.7085 4.713 3.4953 6.983 5.358l-1.269 1.546ZM59.9241 52.7929c-1.0542.9874-2.0929 1.9926-3.1157 3.0154-1.0229 1.0229-2.0281 2.0616-3.0155 3.1158l-1.4597-1.3672c1.0023-1.0701 2.0227-2.1245 3.0609-3.1628 1.0383-1.0382 2.0927-2.0587 3.1628-3.0609l1.3672 1.4597Zm184.2679 3.0155c-1.023-1.0229-2.062-2.0281-3.116-3.0154l1.367-1.4598c1.07 1.0023 2.125 2.0227 3.163 3.061 1.038 1.0382 2.059 2.0926 3.061 3.1627l-1.46 1.3672c-.987-1.0542-1.993-2.0929-3.015-3.1157ZM48.0761 65.4429c-1.835 2.2359-3.5953 4.5301-5.2783 6.8788l-1.6257-1.1649c1.7084-2.3842 3.4953-4.713 5.358-6.9827l1.546 1.2688Zm210.1259 6.8788c-1.683-2.3486-3.443-4.6429-5.278-6.8788l1.546-1.2688c1.863 2.2697 3.649 4.5986 5.358 6.9827l-1.626 1.1649ZM37.9807 79.531c-1.5258 2.4537-2.9718 4.958-4.3353 7.5089l-1.7638-.9428c1.3841-2.5894 2.8519-5.1315 4.4007-7.6222l1.6984 1.0561Zm229.3743 7.5089c-1.364-2.5509-2.81-5.0552-4.336-7.5089l1.699-1.0561c1.549 2.4907 3.016 5.0328 4.4 7.6222l-1.763.9428ZM29.8106 94.8162c-.5961 1.3156-1.1711 2.6419-1.7246 3.9782-.5536 1.3366-1.0848 2.6806-1.5936 4.0326l-1.8718-.705c.5165-1.372 1.0557-2.7364 1.6176-4.0929.5619-1.3566 1.1456-2.7028 1.7507-4.0383l1.8217.8254Zm243.1034 3.9783c-.553-1.3364-1.128-2.6626-1.725-3.9783l1.822-.8254c.605 1.3355 1.189 2.6817 1.751 4.0383.562 1.3566 1.101 2.7209 1.617 4.0929l-1.871.705c-.509-1.352-1.04-2.696-1.594-4.0325ZM23.7054 111.037c-.8396 2.768-1.588 5.561-2.2441 8.375l-1.9478-.454c.6661-2.856 1.4257-5.692 2.278-8.501l1.9139.58Zm255.8336 8.375c-.656-2.814-1.405-5.607-2.244-8.375l1.913-.58c.853 2.809 1.612 5.645 2.278 8.501l-1.947.454Zm-259.7692 8.504c-.4707 2.851-.8483 5.718-1.1318 8.597l-1.9904-.196c.2878-2.922.6711-5.833 1.1489-8.726l1.9733.325Zm262.5922 8.597c-.284-2.879-.661-5.746-1.132-8.597l1.974-.325c.477 2.893.861 5.804 1.148 8.726l-1.99.196Zm-264.2911 8.652C18.0237 146.608 18 148.053 18 149.5c0 1.446.0237 2.892.0709 4.335l-1.9989.066c-.048-1.466-.072-2.933-.072-4.401s.024-2.935.072-4.401l1.9989.066ZM283 149.5c0-1.446-.024-2.892-.071-4.335l1.999-.066c.048 1.466.072 2.933.072 4.401s-.024 2.935-.072 4.401l-1.999-.066c.047-1.443.071-2.889.071-4.335ZM18.638 162.487c.2835 2.879.6611 5.746 1.1318 8.597l-1.9733.325c-.4778-2.893-.8611-5.804-1.1489-8.726l1.9904-.196Zm262.592 8.597c.471-2.851.848-5.718 1.132-8.597l1.99.196c-.287 2.922-.671 5.833-1.148 8.726l-1.974-.325Zm-259.7687 8.504c.6561 2.814 1.4044 5.607 2.2441 8.375l-1.9139.58c-.8523-2.809-1.6119-5.645-2.278-8.501l1.9478-.454Zm255.8337 8.375c.839-2.768 1.588-5.561 2.244-8.375l1.947.454c-.666 2.856-1.425 5.692-2.278 8.501l-1.913-.58Zm-250.8026 8.21c.5088 1.352 1.04 2.696 1.5936 4.033.5535 1.336 1.1285 2.662 1.7246 3.978l-1.8218.825c-.605-1.335-1.1887-2.682-1.7506-4.038-.5619-1.357-1.1011-2.721-1.6176-4.093l1.8718-.705Zm246.4216 4.033c.554-1.337 1.085-2.681 1.594-4.033l1.871.705c-.516 1.372-1.055 2.736-1.617 4.093-.562 1.356-1.146 2.703-1.751 4.038l-1.822-.825c.597-1.316 1.171-2.642 1.725-3.978ZM33.6454 211.96c1.3635 2.551 2.8095 5.055 4.3353 7.509l-1.6984 1.056c-1.5488-2.491-3.0166-5.033-4.4007-7.622l1.7638-.943Zm229.3736 7.509c1.526-2.454 2.972-4.958 4.336-7.509l1.763.943c-1.384 2.589-2.851 5.131-4.4 7.622l-1.699-1.056Zm-220.2212 7.209c1.683 2.349 3.4433 4.643 5.2783 6.879l-1.546 1.269c-1.8627-2.27-3.6496-4.599-5.358-6.983l1.6257-1.165Zm210.1262 6.879c1.835-2.236 3.595-4.53 5.278-6.879l1.626 1.165c-1.709 2.384-3.495 4.713-5.358 6.983l-1.546-1.269Zm-199.1311 6.519c.9874 1.054 1.9926 2.093 3.0154 3.116 1.0229 1.022 2.0616 2.028 3.1158 3.015l-1.3672 1.46c-1.0701-1.002-2.1245-2.023-3.1628-3.061-1.0382-1.038-2.0586-2.093-3.0609-3.163l1.4597-1.367Zm190.3991 3.116c1.022-1.023 2.028-2.062 3.015-3.116l1.46 1.367c-1.002 1.07-2.023 2.125-3.061 3.163-1.038 1.038-2.093 2.059-3.163 3.061l-1.367-1.46c1.054-.987 2.093-1.993 3.116-3.015Zm-177.7491 8.732c2.2359 1.835 4.5301 3.595 6.8788 5.278l-1.1649 1.626c-2.3842-1.709-4.713-3.495-6.9827-5.358l1.2688-1.546Zm161.2351 5.278c2.349-1.683 4.643-3.443 6.879-5.278l1.269 1.546c-2.27 1.863-4.599 3.649-6.983 5.358l-1.165-1.626Zm-147.147 4.817c2.4537 1.526 4.958 2.972 7.5089 4.336l-.9428 1.763c-2.5894-1.384-5.1315-2.851-7.6222-4.4l1.0561-1.699Zm132.429 4.336c2.551-1.364 5.055-2.81 7.509-4.336l1.056 1.699c-2.491 1.549-5.033 3.016-7.622 4.4l-.943-1.763Zm-117.1438 3.834c1.3156.597 2.6419 1.171 3.9782 1.725 1.3366.554 2.6806 1.085 4.0326 1.594l-.705 1.871c-1.372-.516-2.736-1.055-4.0929-1.617-1.3566-.562-2.7028-1.146-4.0383-1.751l.8254-1.822Zm105.3898 1.725c1.336-.554 2.662-1.128 3.978-1.725l.825 1.822c-1.335.605-2.682 1.189-4.038 1.751-1.357.562-2.721 1.101-4.093 1.617l-.705-1.871c1.352-.509 2.696-1.04 4.033-1.594Zm-89.169 4.381c2.768.839 5.561 1.588 8.375 2.244l-.454 1.947c-2.856-.666-5.692-1.425-8.501-2.278l.58-1.913Zm68.551 2.244c2.814-.656 5.607-1.405 8.375-2.244l.58 1.913c-2.809.853-5.645 1.612-8.501 2.278l-.454-1.947Zm-51.672 1.691c2.851.471 5.718.848 8.597 1.132l-.196 1.99c-2.922-.287-5.833-.671-8.726-1.148l.325-1.974Zm34.571 1.132c2.879-.284 5.746-.661 8.597-1.132l.325 1.974c-2.893.477-5.804.861-8.726 1.148l-.196-1.99Zm-17.322.567c1.443.047 2.888.071 4.335.071 1.446 0 2.892-.024 4.335-.071l.066 1.999c-1.466.048-2.933.072-4.401.072s-2.935-.024-4.401-.072l.066-1.999ZM54.7949 176.361c-1.6406-3.691-2.4609-7.617-2.4609-11.777 0-4.453.8496-8.584 2.5488-12.393 1.6992-3.808 4.1309-7.119 7.2949-9.931 3.2227-2.813 7.1485-5.01 11.7774-6.592 4.6875-1.641 10.0195-2.461 15.9961-2.461 2.9297 0 5.9472.234 9.0527.703 3.1051.41 6.1821 1.084 9.2281 2.022 3.047.937 6.036 2.138 8.965 3.603 2.93 1.465 5.713 3.252 8.35 5.361v35.948c-2.109 2.168-4.6 4.131-7.471 5.888-2.812 1.758-5.859 3.252-9.14 4.483-3.223 1.23-6.592 2.197-10.1079 2.9-3.5156.645-7.0312.967-10.5469.967-5.5078 0-10.4882-.791-14.9414-2.373-4.3945-1.641-8.1738-3.838-11.3378-6.592-3.1055-2.812-5.5079-6.064-7.2071-9.756ZM148.413 31l2.694 8.2918h8.718l-7.053 5.1246 2.694 8.2918-7.053-5.1246-7.054 5.1246 2.694-8.2918L137 39.2918h8.719L148.413 31Zm-27 3 2.694 8.2918h8.718l-7.053 5.1246 2.694 8.2918-7.053-5.1246-7.054 5.1246 2.694-8.2918L110 42.2918h8.719L121.413 34Zm-21.306 17.2918L97.4127 43l-2.6942 8.2918H86l7.0534 5.1246-2.6941 8.2918 7.0534-5.1246 7.0533 5.1246-2.694-8.2918 7.053-5.1246h-8.718ZM175.413 34l2.694 8.2918h8.718l-7.053 5.1246 2.694 8.2918-7.053-5.1246-7.054 5.1246 2.694-8.2918L164 42.2918h8.718L175.413 34Zm29.694 17.2918L202.413 43l-2.695 8.2918H191l7.053 5.1246-2.694 8.2918 7.054-5.1246 7.053 5.1246-2.694-8.2918 7.053-5.1246h-8.718ZM82 229.601c52.236-7.528 83.801-7.408 137 0l-13 11 11 13c-52.245-8.988-81.79-9.241-135 0l10-13-10-11Zm69.626 10.135 4.428-2.889c.664-.433 1.209-.811 1.634-1.133.425-.322.76-.609 1.005-.861.246-.257.417-.488.514-.695.097-.207.15-.415.159-.623.01-.239-.03-.464-.12-.673-.091-.21-.239-.394-.446-.553-.202-.159-.468-.285-.797-.379-.325-.093-.716-.143-1.174-.149-.667-.009-1.335.075-2.004.253s-1.356.467-2.061.869l-1.062-1.89c.786-.462 1.629-.82 2.531-1.073.907-.253 1.852-.372 2.836-.358.86.012 1.6.127 2.221.344.627.212 1.139.497 1.536.857.401.36.694.775.878 1.247.183.471.264.969.242 1.495-.017.406-.101.792-.252 1.16-.151.367-.404.747-.759 1.137-.355.391-.831.811-1.428 1.261-.592.445-1.338.95-2.237 1.515l-1.83 1.145 6.687.095-.091 2.17-10.499-.148.089-2.124Zm-24.439-7.404-4.501.234-.331-2.146 11.477-.597.33 2.147-4.501.234 1.527 9.922-2.474.129-1.527-9.923Zm-14.206 7.904c-.501-.159-1.002-.341-1.503-.547l-.832 2.059c.526.219 1.086.415 1.679.587.598.166 1.215.303 1.85.41.64.101 1.297.165 1.971.191.675.031 1.356.018 2.041-.04 1.038-.087 1.956-.259 2.756-.517.798-.263 1.451-.602 1.957-1.016.511-.419.861-.908 1.051-1.466.194-.563.206-1.186.037-1.868-.127-.511-.337-.962-.631-1.356-.294-.398-.665-.726-1.11-.983-.446-.262-.967-.448-1.561-.558-.589-.11-1.242-.136-1.958-.076-.379.032-.765.085-1.16.16-.391.069-.776.142-1.153.22-.373.078-.731.152-1.074.222-.339.064-.643.108-.913.13-.67.057-1.196-.013-1.578-.208-.383-.2-.619-.477-.707-.831-.045-.182-.041-.368.013-.558.057-.196.197-.378.42-.546.222-.174.539-.327.951-.459.418-.133.966-.228 1.646-.285.478-.04.952-.052 1.422-.034.475.012.939.045 1.392.1.453.055.893.129 1.319.222.424.088.826.191 1.205.309l.6-2.032c-.46-.147-.95-.273-1.469-.379-.52-.112-1.055-.198-1.606-.261-.545-.062-1.1-.098-1.664-.108-.565-.014-1.12.001-1.665.047-.753.063-1.412.172-1.977.328-.562.15-1.045.335-1.452.555-.401.22-.728.469-.982.748-.255.274-.448.567-.577.877-.126.304-.196.62-.211.946-.009.326.027.651.107.974.136.546.368 1.014.698 1.405.33.39.721.705 1.173.946.457.241.952.408 1.484.503.537.094 1.078.118 1.623.073.327-.028.67-.077 1.028-.148.363-.077.727-.157 1.093-.239.372-.083.74-.16 1.103-.232.363-.077.712-.129 1.05-.157.768-.065 1.368.014 1.799.236.43.217.698.54.805.97.066.268.053.522-.042.762-.088.239-.276.456-.561.65-.282.189-.668.353-1.158.492-.491.134-1.102.232-1.834.293-.607.051-1.19.064-1.747.038-.552-.026-1.089-.084-1.609-.174-.522-.096-1.035-.221-1.539-.375Zm-6.697-8.693-10.3286 1.2 3.9721 11.547 10.4915-1.219-.704-2.046-8.031.933-1.106-3.214 6.969-.809-.663-1.929-6.9692.81-.7929-2.305 7.8691-.914-.707-2.054Zm30.635 8.536c-.069.183-.095.379-.078.587.017.208.075.404.173.588.104.18.241.334.414.465.172.131.376.232.612.303.235.077.497.111.783.103.286-.007.541-.056.763-.145.223-.085.407-.196.552-.336.15-.139.26-.301.328-.485.073-.189.102-.387.085-.595-.017-.208-.077-.401-.181-.58-.098-.185-.234-.343-.406-.473-.168-.136-.369-.24-.605-.311-.235-.072-.496-.104-.782-.096-.287.008-.541.054-.764.138-.223.084-.409.199-.559.343-.15.14-.262.304-.335.494Zm27.496-6.764c-.399.761-.663 1.629-.793 2.605s-.098 1.858.096 2.645c.194.788.528 1.463 1.003 2.024.475.562 1.084 1.002 1.827 1.321.743.319 1.598.5 2.566.543.967.044 1.86-.059 2.679-.308.818-.249 1.536-.63 2.153-1.142.618-.512 1.126-1.149 1.526-1.91.399-.762.664-1.63.793-2.606.13-.976.098-1.857-.096-2.645-.193-.788-.528-1.463-1.003-2.024-.474-.567-1.083-1.009-1.825-1.328-.743-.319-1.598-.5-2.566-.544-.968-.043-1.861.059-2.679.308-.818.249-1.537.633-2.155 1.15-.618.513-1.126 1.15-1.526 1.911Zm1.715 4.47c-.11-.513-.121-1.101-.033-1.762.087-.655.252-1.23.496-1.723.249-.497.563-.912.942-1.243.379-.331.817-.573 1.314-.728.497-.159 1.043-.226 1.636-.199.593.027 1.114.141 1.564.343.45.197.818.475 1.106.836.287.361.485.799.595 1.312.115.509.13 1.092.042 1.747-.087.661-.256 1.241-.505 1.738-.244.499-.556.913-.935 1.244-.378.326-.816.568-1.313.728-.497.154-1.042.218-1.635.192-.593-.027-1.115-.139-1.565-.336-.45-.202-.818-.48-1.106-.836-.287-.361-.488-.798-.603-1.313Zm10.521 2.673 4.939-2.556c.741-.384 1.353-.72 1.835-1.009.482-.289.868-.549 1.157-.78.291-.237.503-.453.637-.65.134-.196.224-.396.27-.599.052-.234.052-.457-.001-.667-.053-.211-.169-.401-.348-.569-.173-.169-.416-.308-.729-.42-.308-.111-.691-.184-1.148-.219-.664-.05-1.347-.009-2.048.124-.7.133-1.439.374-2.214.724l-.727-1.916c.867-.405 1.774-.703 2.72-.895.952-.191 1.918-.25 2.9-.175.857.065 1.577.223 2.16.474.589.246 1.05.557 1.382.934.338.377.557.802.657 1.275.1.472.092.965-.023 1.479-.089.396-.242.77-.458 1.12-.216.351-.536.706-.96 1.067-.425.361-.975.743-1.652 1.146-.671.399-1.505.847-2.504 1.345l-2.033 1.009 6.668.506-.476 2.119-10.47-.794.466-2.073Zm22.07-8.073-9.348 6.32-.673 2.069 7.116.763-.79 2.487 2.463.264.789-2.487 2.618.28.657-2.07-2.618-.281 2.248-7.081-2.462-.264Zm-.948 2.986-1.3 4.096-4.148-.445 5.448-3.651Z" fill="#000"/>
</svg>
